<svg width="207" height="33" viewBox="0 0 207 33" fill="none" xmlns="http://www.w3.org/2000/svg">
<path d="M7.25012 15.125L2.50012 28.5L15.8751 23.7625M5.00012 4.75H5.01262M27.5001 11H27.5126M18.7501 3.5H18.7626M27.5001 26H27.5126M27.5001 3.5L24.7001 4.4375C23.9031 4.70299 23.223 5.23705 22.7762 5.9484C22.3293 6.65976 22.1433 7.50424 22.2501 8.3375C22.3751 9.4125 21.5376 10.375 20.4376 10.375H19.9626C18.8876 10.375 17.9626 11.125 17.7626 12.175L17.5001 13.5M27.5001 17.25L26.4751 16.8375C25.4001 16.4125 24.2001 17.0875 24.0001 18.225C23.8626 19.1 23.1001 19.75 22.2126 19.75H21.2501M13.7501 3.5L14.1626 4.525C14.5876 5.6 13.9126 6.8 12.7751 7C11.9001 7.125 11.2501 7.9 11.2501 8.7875V9.75M13.7501 17.25C16.1626 19.6625 17.2876 22.4625 16.2501 23.5C15.2126 24.5375 12.4126 23.4125 10.0001 21C7.58762 18.5875 6.46262 15.7875 7.50012 14.75C8.53762 13.7125 11.3376 14.8375 13.7501 17.25Z" stroke="#FFDF20" stroke-width="2.5" stroke-linecap="round" stroke-linejoin="round"/>
<path d="M201.386 8.20801C203.199 8.20801 204.533 8.57067 205.386 9.29601C206.239 10 206.666 10.9067 206.666 12.016C206.666 12.9547 206.367 13.6693 205.77 14.16C205.194 14.6507 204.351 14.896 203.242 14.896C202.943 14.896 202.741 14.864 202.634 14.8C202.527 14.736 202.474 14.6187 202.474 14.448C202.474 14.256 202.453 14.0427 202.41 13.808C202.389 13.552 202.314 13.3173 202.186 13.104C202.079 12.8693 201.898 12.6773 201.642 12.528C201.407 12.3787 201.066 12.304 200.618 12.304C200.021 12.304 199.541 12.4533 199.178 12.752C198.815 13.0293 198.634 13.3813 198.634 13.808C198.634 14.256 198.815 14.6187 199.178 14.896C199.562 15.152 200.031 15.3973 200.586 15.632C201.162 15.8667 201.781 16.112 202.442 16.368C203.103 16.6027 203.711 16.9227 204.266 17.328C204.842 17.7333 205.311 18.2453 205.674 18.864C206.058 19.4613 206.25 20.24 206.25 21.2C206.25 22.736 205.706 23.9947 204.618 24.976C203.53 25.9573 201.898 26.448 199.722 26.448C199.125 26.448 198.431 26.3947 197.642 26.288C196.874 26.2027 196.138 26.064 195.434 25.872C194.73 25.6587 194.133 25.3813 193.642 25.04C193.173 24.6987 192.938 24.272 192.938 23.76C192.938 23.568 192.97 23.3333 193.034 23.056C193.119 22.7787 193.237 22.512 193.386 22.256C193.557 22 193.749 21.7867 193.962 21.616C194.197 21.424 194.474 21.328 194.794 21.328C195.05 21.328 195.285 21.392 195.498 21.52C195.711 21.648 195.957 21.7867 196.234 21.936C196.533 22.064 196.895 22.192 197.322 22.32C197.749 22.448 198.314 22.512 199.018 22.512C199.551 22.512 200.021 22.448 200.426 22.32C200.853 22.192 201.066 21.904 201.066 21.456C201.066 21.0507 200.895 20.7307 200.554 20.496C200.213 20.24 199.775 20.0053 199.242 19.792C198.73 19.5787 198.165 19.3547 197.546 19.12C196.949 18.864 196.383 18.5333 195.85 18.128C195.338 17.7227 194.911 17.2107 194.57 16.592C194.229 15.952 194.058 15.1307 194.058 14.128C194.058 13.04 194.271 12.1227 194.698 11.376C195.146 10.608 195.711 9.98934 196.394 9.52001C197.098 9.05067 197.887 8.72001 198.762 8.52801C199.637 8.31467 200.511 8.20801 201.386 8.20801Z" fill="#FFDF20"/>
<path d="M181.973 26.448C180.501 26.448 179.274 26.2453 178.293 25.84C177.333 25.4133 176.565 24.8373 175.989 24.112C175.413 23.3867 175.008 22.544 174.773 21.584C174.538 20.6027 174.421 19.5573 174.421 18.448C174.421 17.168 174.57 15.92 174.869 14.704C175.189 13.4667 175.722 12.368 176.469 11.408C177.216 10.448 178.197 9.68001 179.413 9.10401C180.65 8.50667 182.186 8.20801 184.021 8.20801C186.709 8.20801 188.629 8.86934 189.781 10.192C190.954 11.4933 191.541 13.328 191.541 15.696C191.541 16.3573 191.488 17.0933 191.381 17.904C191.296 18.6933 191.114 19.4827 190.837 20.272C190.581 21.0613 190.218 21.8293 189.749 22.576C189.301 23.3227 188.725 23.984 188.021 24.56C187.317 25.136 186.464 25.5947 185.461 25.936C184.48 26.2773 183.317 26.448 181.973 26.448ZM183.477 12.464C182.666 12.464 182.016 12.6773 181.525 13.104C181.056 13.5093 180.693 14.0107 180.437 14.608C180.202 15.184 180.042 15.8027 179.957 16.464C179.893 17.104 179.861 17.648 179.861 18.096C179.861 19.504 180.085 20.5387 180.533 21.2C180.981 21.8613 181.621 22.192 182.453 22.192C183.2 22.192 183.808 21.9573 184.277 21.488C184.768 21.0187 185.141 20.4533 185.397 19.792C185.674 19.1307 185.856 18.4373 185.941 17.712C186.048 16.9867 186.101 16.3787 186.101 15.888C186.101 14.8213 185.898 13.9893 185.493 13.392C185.109 12.7733 184.437 12.464 183.477 12.464Z" fill="#FFDF20"/>
<path d="M165.96 22.1602C166.024 21.4562 166.088 20.7202 166.152 19.9522C166.238 19.1842 166.302 18.4482 166.344 17.7442C166.408 17.0402 166.462 16.4109 166.504 15.8562C166.547 15.3016 166.568 14.8962 166.568 14.6402C166.568 14.0856 166.43 13.5949 166.152 13.1682C165.896 12.7202 165.384 12.4962 164.616 12.4962C163.592 12.4962 162.76 12.9762 162.12 13.9362C161.502 14.8962 161.139 16.1762 161.032 17.7762C160.99 18.2242 160.936 18.8536 160.872 19.6642C160.808 20.4536 160.744 21.2642 160.68 22.0962C160.616 22.9069 160.552 23.6429 160.488 24.3042C160.446 24.9442 160.424 25.3389 160.424 25.4882C160.424 25.7442 160.371 25.9149 160.264 26.0002C160.179 26.0856 159.998 26.1282 159.72 26.1282H158.568C157.907 26.1282 157.363 26.0642 156.936 25.9362C156.531 25.7869 156.2 25.5842 155.944 25.3282C155.71 25.0722 155.539 24.7629 155.432 24.4002C155.347 24.0162 155.304 23.5789 155.304 23.0882C155.304 22.6189 155.336 21.9682 155.4 21.1362C155.486 20.2829 155.592 19.1202 155.72 17.6482C155.848 16.1549 155.998 14.2562 156.168 11.9522C156.339 9.64824 156.52 6.78958 156.712 3.37624C156.734 2.90691 156.787 2.62957 156.872 2.54424C156.936 2.48024 157.107 2.44824 157.384 2.44824H158.632C159.272 2.44824 159.806 2.52291 160.232 2.67224C160.659 2.82158 161 3.02424 161.256 3.28024C161.512 3.53624 161.694 3.83491 161.8 4.17624C161.907 4.49624 161.96 4.83758 161.96 5.20024C161.96 5.58424 161.918 6.29891 161.832 7.34424C161.768 8.38957 161.683 9.61624 161.576 11.0242C162.216 9.95758 162.92 9.22158 163.688 8.81624C164.478 8.41091 165.47 8.20824 166.664 8.20824C167.56 8.20824 168.339 8.30424 169 8.49624C169.662 8.68824 170.206 9.01891 170.632 9.48824C171.08 9.93624 171.411 10.5336 171.624 11.2802C171.838 12.0056 171.944 12.9122 171.944 14.0002C171.944 14.3416 171.912 14.9282 171.848 15.7602C171.784 16.5922 171.699 17.5416 171.592 18.6082C171.507 19.6749 171.411 20.7949 171.304 21.9682C171.219 23.1202 171.144 24.1762 171.08 25.1362C171.059 25.3709 171.038 25.5522 171.016 25.6802C170.995 25.8082 170.952 25.9042 170.888 25.9682C170.846 26.0322 170.771 26.0749 170.664 26.0962C170.558 26.1176 170.408 26.1282 170.216 26.1282H169.192C168.51 26.1282 167.955 26.0642 167.528 25.9362C167.102 25.8082 166.771 25.6269 166.536 25.3922C166.302 25.1576 166.131 24.8696 166.024 24.5282C165.939 24.1656 165.896 23.7602 165.896 23.3122C165.896 23.0989 165.896 22.8962 165.896 22.7042C165.918 22.5122 165.939 22.3309 165.96 22.1602Z" fill="#FFDF20"/>
<path d="M146.436 23.312C146.436 22.8427 146.468 22.2347 146.532 21.488C146.617 20.72 146.692 19.92 146.756 19.088C146.841 18.2347 146.916 17.4133 146.98 16.624C147.065 15.8347 147.108 15.1733 147.108 14.64C147.108 14.0853 146.969 13.5947 146.692 13.168C146.436 12.72 145.924 12.496 145.156 12.496C144.409 12.496 143.79 12.6773 143.3 13.04C142.809 13.4027 142.393 14.064 142.052 15.024C141.732 15.984 141.465 17.3067 141.252 18.992C141.038 20.6773 140.836 22.8427 140.644 25.488C140.622 25.744 140.569 25.9147 140.484 26C140.398 26.0853 140.217 26.128 139.94 26.128H138.788C138.126 26.128 137.582 26.064 137.156 25.936C136.75 25.7867 136.42 25.584 136.164 25.328C135.929 25.072 135.758 24.7627 135.652 24.4C135.566 24.016 135.524 23.5787 135.524 23.088C135.524 22.768 135.534 22.32 135.556 21.744C135.598 21.1467 135.662 20.336 135.748 19.312C135.833 18.2667 135.929 16.9547 136.036 15.376C136.164 13.776 136.313 11.8027 136.484 9.45601C136.505 8.98667 136.558 8.70934 136.644 8.62401C136.708 8.56001 136.878 8.52801 137.156 8.52801H138.404C139.044 8.52801 139.566 8.60267 139.972 8.75201C140.398 8.90134 140.74 9.10401 140.996 9.36001C141.252 9.59467 141.433 9.88268 141.54 10.224C141.646 10.544 141.71 10.8747 141.732 11.216C142.393 10.0853 143.15 9.30667 144.004 8.88001C144.857 8.43201 145.924 8.20801 147.204 8.20801C148.1 8.20801 148.878 8.30401 149.54 8.49601C150.201 8.68801 150.745 9.01867 151.172 9.48801C151.62 9.93601 151.95 10.5333 152.164 11.28C152.377 12.0053 152.484 12.912 152.484 14C152.484 14.3413 152.462 14.832 152.42 15.472C152.377 16.112 152.324 16.816 152.26 17.584C152.196 18.3307 152.121 19.12 152.036 19.952C151.972 20.7627 151.908 21.52 151.844 22.224C151.78 22.928 151.726 23.5467 151.684 24.08C151.641 24.6133 151.62 24.9653 151.62 25.136C151.62 25.6053 151.566 25.8933 151.46 26C151.353 26.0853 151.118 26.128 150.756 26.128H149.732C149.049 26.128 148.494 26.064 148.068 25.936C147.641 25.808 147.31 25.6267 147.076 25.392C146.841 25.1573 146.67 24.8693 146.564 24.528C146.478 24.1653 146.436 23.76 146.436 23.312Z" fill="#FFDF20"/>
<path d="M129.82 26.128C129.158 26.128 128.614 26.064 128.188 25.936C127.782 25.7867 127.452 25.584 127.196 25.328C126.961 25.072 126.79 24.7627 126.684 24.4C126.598 24.016 126.556 23.5787 126.556 23.088C126.556 22.768 126.566 22.32 126.588 21.744C126.63 21.1467 126.694 20.336 126.78 19.312C126.865 18.2667 126.961 16.9547 127.068 15.376C127.196 13.776 127.345 11.8027 127.516 9.456C127.537 8.98667 127.59 8.70933 127.676 8.624C127.74 8.56 127.91 8.528 128.188 8.528H129.436C130.097 8.528 130.63 8.592 131.036 8.72C131.462 8.848 131.793 9.04 132.028 9.296C132.284 9.552 132.454 9.86133 132.54 10.224C132.646 10.5867 132.7 10.992 132.7 11.44C132.7 11.76 132.678 12.24 132.636 12.88C132.593 13.52 132.529 14.3947 132.444 15.504C132.38 16.592 132.284 17.9573 132.156 19.6C132.028 21.2213 131.868 23.184 131.676 25.488C131.654 25.744 131.601 25.9147 131.516 26C131.43 26.0853 131.249 26.128 130.972 26.128H129.82ZM127.548 4.752C127.548 3.89867 127.857 3.22667 128.476 2.736C129.094 2.24533 129.926 2 130.972 2C131.889 2 132.55 2.192 132.956 2.576C133.382 2.93867 133.596 3.42933 133.596 4.048C133.596 4.83733 133.297 5.49867 132.7 6.032C132.124 6.544 131.27 6.8 130.14 6.8C128.412 6.8 127.548 6.11733 127.548 4.752Z" fill="#FFDF20"/>
<path d="M113.448 11.2483C113.448 11.6963 113.406 12.3257 113.32 13.1363C113.256 13.947 113.182 14.7897 113.096 15.6643C113.032 16.539 112.958 17.3603 112.872 18.1283C112.808 18.8963 112.776 19.451 112.776 19.7923C112.776 20.539 112.958 21.1257 113.32 21.5523C113.704 21.9577 114.227 22.1603 114.888 22.1603C115.464 22.1603 115.944 21.9363 116.328 21.4883C116.734 21.019 117.054 20.4217 117.288 19.6963C117.544 18.9497 117.747 18.107 117.896 17.1683C118.046 16.2297 118.152 15.2803 118.216 14.3203C118.302 13.3603 118.366 12.4323 118.408 11.5363C118.472 10.619 118.536 9.82965 118.6 9.16832C118.622 8.99765 118.686 8.84832 118.792 8.72032C118.899 8.59232 119.07 8.52832 119.304 8.52832H120.456C121.118 8.52832 121.651 8.60299 122.056 8.75232C122.483 8.88032 122.814 9.07232 123.048 9.32832C123.304 9.58432 123.475 9.90432 123.56 10.2883C123.667 10.651 123.72 11.0777 123.72 11.5683C123.72 11.8883 123.699 12.347 123.656 12.9443C123.635 13.5203 123.582 14.331 123.496 15.3763C123.411 16.4003 123.304 17.7123 123.176 19.3123C123.07 20.891 122.931 22.8537 122.76 25.2003C122.718 25.6483 122.664 25.915 122.6 26.0003C122.558 26.0857 122.387 26.1283 122.088 26.1283H120.84C120.2 26.1283 119.667 26.0537 119.24 25.9043C118.835 25.755 118.504 25.563 118.248 25.3283C117.992 25.0937 117.811 24.8163 117.704 24.4963C117.598 24.1763 117.534 23.8457 117.512 23.5043C117.192 24.059 116.83 24.5283 116.424 24.9123C116.04 25.2963 115.635 25.6057 115.208 25.8403C114.782 26.0537 114.344 26.203 113.896 26.2883C113.448 26.395 113.011 26.4483 112.584 26.4483C111.774 26.4483 111.048 26.3203 110.408 26.0643C109.768 25.787 109.224 25.4243 108.776 24.9763C108.35 24.5283 108.019 23.995 107.784 23.3763C107.55 22.7577 107.432 22.0963 107.432 21.3923C107.432 21.115 107.443 20.667 107.464 20.0483C107.507 19.4083 107.55 18.6937 107.592 17.9043C107.656 17.115 107.72 16.283 107.784 15.4083C107.848 14.5123 107.902 13.6697 107.944 12.8803C108.008 12.091 108.062 11.3977 108.104 10.8003C108.168 10.203 108.211 9.77632 108.232 9.52032C108.275 9.13632 108.36 8.88032 108.488 8.75232C108.616 8.60299 108.83 8.52832 109.128 8.52832H110.152C110.814 8.52832 111.358 8.59232 111.784 8.72032C112.211 8.84832 112.542 9.02965 112.776 9.26432C113.032 9.49899 113.203 9.78699 113.288 10.1283C113.395 10.4483 113.448 10.8217 113.448 11.2483Z" fill="#FFDF20"/>
<path d="M95.3562 8.20801C96.4016 8.20801 97.2549 8.47467 97.9162 9.00801C98.5776 9.52001 99.0042 10.1707 99.1962 10.96C99.1962 10.8533 99.1962 10.672 99.1962 10.416C99.2176 10.1387 99.2496 9.86134 99.2922 9.58401C99.3349 9.30667 99.3989 9.06134 99.4842 8.84801C99.5696 8.63467 99.6762 8.52801 99.8042 8.52801H101.244C102.332 8.52801 103.154 8.76267 103.708 9.23201C104.284 9.70134 104.572 10.384 104.572 11.28C104.572 11.472 104.562 11.7387 104.54 12.08C104.519 12.4213 104.476 12.9013 104.412 13.52C104.348 14.1173 104.274 14.896 104.188 15.856C104.124 16.7947 104.039 17.9787 103.932 19.408C103.826 20.816 103.698 22.5013 103.548 24.464C103.42 26.4053 103.282 28.6773 103.132 31.28C103.111 31.8987 102.887 32.208 102.46 32.208H101.212C100.572 32.208 100.039 32.1333 99.6122 31.984C99.1856 31.8347 98.8442 31.632 98.5882 31.376C98.3322 31.12 98.1509 30.8213 98.0442 30.48C97.9376 30.16 97.8842 29.808 97.8842 29.424C97.8842 29.0613 97.9162 28.3573 97.9802 27.312C98.0656 26.2667 98.1616 25.04 98.2682 23.632C97.7776 24.5067 97.1269 25.2 96.3162 25.712C95.5269 26.2027 94.5242 26.448 93.3082 26.448C92.4336 26.448 91.6442 26.3093 90.9402 26.032C90.2362 25.7333 89.6282 25.2747 89.1162 24.656C88.6256 24.016 88.2416 23.2053 87.9642 22.224C87.6869 21.2213 87.5482 20.016 87.5482 18.608C87.5482 15.1733 88.2202 12.5813 89.5642 10.832C90.9296 9.08267 92.8602 8.20801 95.3562 8.20801ZM96.5082 12.464C95.7616 12.464 95.1642 12.6667 94.7162 13.072C94.2682 13.4773 93.9269 13.9787 93.6922 14.576C93.4789 15.152 93.3402 15.76 93.2762 16.4C93.2122 17.04 93.1802 17.5947 93.1802 18.064C93.1802 19.536 93.3722 20.592 93.7562 21.232C94.1616 21.872 94.7696 22.192 95.5802 22.192C96.3482 22.192 96.9562 21.9467 97.4042 21.456C97.8522 20.9653 98.1829 20.4 98.3962 19.76C98.6309 19.0987 98.7802 18.4373 98.8442 17.776C98.9082 17.0933 98.9402 16.56 98.9402 16.176C98.9402 14.96 98.7589 14.0427 98.3962 13.424C98.0336 12.784 97.4042 12.464 96.5082 12.464Z" fill="#FFDF20"/>
<path d="M75.8793 26.448C74.4073 26.448 73.1806 26.2453 72.1993 25.84C71.2393 25.4133 70.4713 24.8373 69.8953 24.112C69.3193 23.3867 68.9139 22.544 68.6793 21.584C68.4446 20.6027 68.3273 19.5573 68.3273 18.448C68.3273 17.168 68.4766 15.92 68.7753 14.704C69.0953 13.4667 69.6286 12.368 70.3753 11.408C71.1219 10.448 72.1033 9.68001 73.3193 9.10401C74.5566 8.50667 76.0926 8.20801 77.9273 8.20801C80.6153 8.20801 82.5353 8.86934 83.6873 10.192C84.8606 11.4933 85.4473 13.328 85.4473 15.696C85.4473 16.3573 85.3939 17.0933 85.2873 17.904C85.2019 18.6933 85.0206 19.4827 84.7433 20.272C84.4873 21.0613 84.1246 21.8293 83.6553 22.576C83.2073 23.3227 82.6313 23.984 81.9273 24.56C81.2233 25.136 80.3699 25.5947 79.3673 25.936C78.3859 26.2773 77.2233 26.448 75.8793 26.448ZM77.3833 12.464C76.5726 12.464 75.9219 12.6773 75.4313 13.104C74.9619 13.5093 74.5993 14.0107 74.3433 14.608C74.1086 15.184 73.9486 15.8027 73.8633 16.464C73.7993 17.104 73.7673 17.648 73.7673 18.096C73.7673 19.504 73.9913 20.5387 74.4393 21.2C74.8873 21.8613 75.5273 22.192 76.3593 22.192C77.1059 22.192 77.7139 21.9573 78.1833 21.488C78.6739 21.0187 79.0473 20.4533 79.3033 19.792C79.5806 19.1307 79.7619 18.4373 79.8473 17.712C79.9539 16.9867 80.0073 16.3787 80.0073 15.888C80.0073 14.8213 79.8046 13.9893 79.3993 13.392C79.0153 12.7733 78.3433 12.464 77.3833 12.464Z" fill="#FFDF20"/>
<path d="M62.7671 26.4162C61.4444 26.4162 60.4951 26.0642 59.9191 25.3602C59.3431 24.6562 59.0551 23.4936 59.0551 21.8722C59.0551 21.6162 59.0657 21.2962 59.0871 20.9122C59.1297 20.5282 59.1724 20.0376 59.2151 19.4402C59.2791 18.8216 59.3537 18.0642 59.4391 17.1682C59.5244 16.2722 59.6097 15.1842 59.6951 13.9042C59.8017 12.6242 59.9084 11.1202 60.0151 9.39224C60.1431 7.66424 60.2711 5.65891 60.3991 3.37624C60.4204 2.90691 60.4737 2.62957 60.5591 2.54424C60.6231 2.48024 60.7937 2.44824 61.0711 2.44824H62.3191C62.9591 2.44824 63.4924 2.52291 63.9191 2.67224C64.3457 2.82158 64.6871 3.02424 64.9431 3.28024C65.1991 3.53624 65.3804 3.83491 65.4871 4.17624C65.5937 4.49624 65.6471 4.83758 65.6471 5.20024C65.6471 5.62691 65.6151 6.24558 65.5511 7.05624C65.5084 7.84558 65.4444 8.74158 65.3591 9.74424C65.2737 10.7469 65.1884 11.7922 65.1031 12.8802C65.0177 13.9682 64.9324 15.0136 64.8471 16.0162C64.7617 16.9976 64.6871 17.8829 64.6231 18.6722C64.5804 19.4616 64.5591 20.0589 64.5591 20.4642C64.5591 21.0189 64.6551 21.4136 64.8471 21.6482C65.0604 21.8829 65.2844 22.0536 65.5191 22.1602C65.7537 22.2456 65.9671 22.3096 66.1591 22.3522C66.3724 22.3736 66.4791 22.4376 66.4791 22.5442C66.4791 23.0136 66.4257 23.4829 66.3191 23.9522C66.2124 24.4002 66.0204 24.8162 65.7431 25.2002C65.4657 25.5629 65.0817 25.8616 64.5911 26.0962C64.1217 26.3096 63.5137 26.4162 62.7671 26.4162Z" fill="#FFDF20"/>
<path d="M46.304 26.4483C45.0453 26.4483 44.0107 26.363 43.2 26.1923C42.3893 26.043 41.7387 25.819 41.248 25.5203C40.7787 25.2003 40.448 24.8057 40.256 24.3363C40.0853 23.867 40 23.3123 40 22.6723C40 22.4803 40.0107 22.2137 40.032 21.8723C40.0533 21.5097 40.0853 21.0083 40.128 20.3683C40.1707 19.7283 40.224 18.907 40.288 17.9043C40.3733 16.8803 40.48 15.6003 40.608 14.0643C40.7573 12.1657 40.8747 10.6617 40.96 9.55235C41.0453 8.44301 41.1093 7.58968 41.152 6.99234C41.1947 6.37368 41.216 5.94701 41.216 5.71235C41.2373 5.45634 41.248 5.24301 41.248 5.07234C41.248 4.73101 41.248 4.45368 41.248 4.24035C41.2693 4.02701 41.2907 3.86701 41.312 3.76034C41.3547 3.63234 41.408 3.54701 41.472 3.50434C41.5573 3.44034 41.6747 3.40834 41.824 3.40834C43.0827 3.32301 44.1493 3.25901 45.024 3.21634C45.92 3.17368 46.6987 3.15234 47.36 3.15234C48.9813 3.15234 50.368 3.29101 51.52 3.56834C52.6933 3.82434 53.6427 4.19768 54.368 4.68834C55.0933 5.17901 55.6267 5.78701 55.968 6.51234C56.3093 7.23768 56.48 8.05901 56.48 8.97635C56.48 9.48834 56.4267 10.0217 56.32 10.5763C56.2133 11.1097 56.032 11.6217 55.776 12.1123C55.52 12.603 55.168 13.0403 54.72 13.4243C54.2933 13.787 53.7493 14.0537 53.088 14.2243C54.3253 14.6083 55.2 15.2483 55.712 16.1443C56.224 17.019 56.48 18.0643 56.48 19.2803C56.48 20.2617 56.32 21.1897 56 22.0643C55.68 22.9177 55.1253 23.675 54.336 24.3363C53.5467 24.9763 52.5013 25.4883 51.2 25.8723C49.8987 26.2563 48.2667 26.4483 46.304 26.4483ZM48.128 16.5283C47.8933 16.5283 47.6053 16.5497 47.264 16.5923C46.9227 16.6137 46.5707 16.6563 46.208 16.7203L45.856 21.9363C46.624 22.171 47.3173 22.2883 47.936 22.2883C48.5973 22.2883 49.1307 22.1923 49.536 22.0003C49.9413 21.8083 50.2507 21.5737 50.464 21.2963C50.6987 20.9977 50.848 20.6777 50.912 20.3363C50.9973 19.9737 51.04 19.643 51.04 19.3443C51.04 18.555 50.816 17.8937 50.368 17.3603C49.9413 16.8057 49.1947 16.5283 48.128 16.5283ZM46.784 7.72834C46.7413 8.28301 46.6987 8.93368 46.656 9.68035C46.6347 10.427 46.592 11.2377 46.528 12.1123C47.2107 12.283 47.8187 12.3683 48.352 12.3683C48.992 12.3683 49.504 12.2937 49.888 12.1443C50.272 11.995 50.5707 11.803 50.784 11.5683C51.0187 11.3337 51.168 11.0777 51.232 10.8003C51.3173 10.523 51.36 10.2563 51.36 10.0003C51.36 9.33901 51.136 8.77368 50.688 8.30434C50.2613 7.81368 49.5147 7.56834 48.448 7.56834C48.2133 7.56834 47.9467 7.58968 47.648 7.63235C47.3707 7.65368 47.0827 7.68568 46.784 7.72834Z" fill="#FFDF20"/>
</svg>
